<svg xmlns="http://www.w3.org/2000/svg" xmlns:xlink="http://www.w3.org/1999/xlink" viewBox="0 0 66 65" fill="#fff" fill-rule="evenodd" stroke="#000" stroke-linecap="round" stroke-linejoin="round"><use xlink:href="#A" x=".5" y=".5"/><symbol id="A" overflow="visible"><g stroke="none" fill-rule="nonzero"><path d="M15.29 27.703s-9.958 7.01-10.347 9.68l.747-.154s11.925-7.904 21.377-8.864l.214-1.2-11.99.542zM30.92 26.7l-7.84 5.563.424.34c.32-.258 13.933-4.415 13.933-4.415l2.87-1.8c-1.926.24-9.383.31-9.383.31zm6.817 6.73c5.57 0 13.92-5.455 13.92-5.455l-2.7-.514c-.133.133-4.352-.148-4.352-.148l-2.003-.556-4.784 5.45-.39.946c.344-.14.31.275.31.275zm18.175 17.396l-1.72.484-7.95-.172-4.973-3.867-6.01 1.504-6.952-.602-3.893 4.254-7.305 2.182-3.647-1.13-.184-.158 1.637 4.01s3.708 3.976 5.78 4.443 5.813-.034 8.62-.468 5.045-1.44 5.946-3.073 1.035-2.105 1.035-2.105 2.673 3.775 4.978 4.2 9.154-1.905 9.154-1.905 4.176-1.136 4.91-2.572S58 49.716 58 49.716l-2.097 1.114zm-41.687 3.266l-.115-.053-.644-.556.76.61z" fill="#cb3349"/><path d="M62.666 22.427l-.064-.64-.07-.456c-.574-.48-1.226-.912-1.905-1.302-.736-.43-1.505-.815-2.29-1.172L55.95 17.83l-1.215-.473-1.227-.456 2.565.557 1.645.473C53.84 7.802 44.575 1.205 34.457 1.205S15.073 7.802 11.198 17.93c.545-.17 1.093-.33 1.644-.473.85-.218 1.703-.414 2.566-.557l-1.23.456-1.22.466a45.93 45.93 0 0 0-2.387 1.026c-.784.357-1.554.742-2.3 1.172-.678.4-1.33.82-1.906 1.302-.024.146-.048.304-.064.456a12.27 12.27 0 0 0-.064.643c-.036.432-.055.866-.057 1.3-.01.868.05 1.736.16 2.592.118.86.276 1.717.5 2.544a13.73 13.73 0 0 0 .397 1.219 10.5 10.5 0 0 0 .244.581 8.86 8.86 0 0 0 .132.277l.055.105.194.096.385.184.758.352c.014-.01.027-.024.04-.036l-.716-2.72c.152-.042 1.5-.392 3.85-.837a11.67 11.67 0 0 1-.567-.122c-.533-.133-1.056-.294-1.568-.5-.253-.104-.5-.223-.74-.357s-.47-.29-.652-.495c2.57.84 7.885.46 12.608-.032 4.32-.448 8.65-.734 13.002-.742 4.353.01 8.684.298 13.002.742 4.725.488 10.038.868 12.6.032-.18.205-.414.36-.65.495a7.19 7.19 0 0 1-.739.357 11.65 11.65 0 0 1-1.568.501c-.08.02-.16.036-.238.053 2.566.476 4.064.863 4.22.906l-.684 2.592.416-.184.385-.184.194-.096.053-.105c.047-.09.092-.183.134-.276a11.02 11.02 0 0 0 .244-.581 13.39 13.39 0 0 0 .397-1.219c.234-.827.392-1.683.5-2.544.1-.86.168-1.727.16-2.592-.002-.434-.02-.867-.058-1.3z" fill="#f4edae"/><path d="M37.372 58.452l-1.02.12-.66.033-.078.002.614-1.39 1.142 1.234zm.74.755c1.057 1.047 2.367 1.647 3.81 1.754-2.422.984-4.705 1.363-6.463 1.482-1.753.117-3.53-.1-5.272-.566l.382-.06c.143-.017 3.266-.425 4.674-2.518h.478l.67-.028a13.97 13.97 0 0 0 1.561-.225l.16.16z" fill="#e6ccad"/><path d="M41.108 27.862l-.335.43a27.88 27.88 0 0 1-2.494 2.761l-3.65-.057-5.932.146c2.656-1.104 5.855-2.182 9.312-2.83l3.096-.45zm-15.566 1.19c-.95.667-2.022 1.518-3.06 2.55l-6.9.896c2.946-1.354 6.308-2.6 9.963-3.45zm32.53 5.497l-1.083 7.578-5.188 3.634-13.53-1.538-2.037-6.707c-.048-.16-.186-.283-.355-.3a8.45 8.45 0 0 0-1.314-.122c-.37 0-.813.042-1.317.122-.167.028-.304.147-.354.3l-1.984 6.544-13.455 2.994-5.335-3.736-1.05-8.503.696-.384 1.112-.225 1 8.023c.016.125.084.238.188.31l3.668 2.57c.076.05.165.08.255.08a.46.46 0 0 0 .098-.01l11.062-2.462c.038-.01.075-.022.1-.04.105-.055.184-.15.218-.265l1.992-6.56c.534-.138 1.903-.458 3.106-.458s2.57.32 3.104.458l1.992 6.56c.05.17.2.292.376.313L51.1 43.98a.45.45 0 0 0 .305-.077l3.67-2.568a.46.46 0 0 0 .183-.303l.98-6.854 1.834.375zm1.366-4.752l-.952 3.616c-1.948-.43-6.226-1.272-12.05-1.84 1.903-.81 3.84-1.83 5.61-3.104 3.466.5 6 1.014 7.392 1.327z" fill="#656c67"/><g fill="#e5caa3"><use xlink:href="#C"/><use xlink:href="#D"/></g><g fill="#c7b39a"><use xlink:href="#C"/><use xlink:href="#D"/></g><path d="M59.993 36.96c.163.134.288.48.146 2.1-.18 1.98-1.01 5.456-1.526 6.016-.57.1-1.762-.02-2.49-.2l.263-1.248 1.272-.9c.1-.07.168-.18.186-.3l.89-6.23 1.26.744zM13.1 45.09l.2.672c-.685.2-2.078.394-2.71.283-.523-.526-1.498-4.15-1.7-6.073-.174-1.558-.052-1.896.107-2.027.184-.155.873-.547 1.47-.866l.806 6.544c.015.126.082.237.188.31l1.65 1.157zm25.728.092l-.048.418s-1.466 1.36-3.826 1.664-4.214-1.146-4.214-1.146c.077.252.188.82.722 1.307-.63-.075-1.308-.126-2.02-.126l-.768.02c-1.453.076-3.496 2.272-4.933 4.484l-5.46 1.676c-2.38-3.296-3.55-6.67-3.67-7.018h.002l-.14-.406.612.428v.002l1.512 1.056.506.352a.44.44 0 0 0 .254.081c.033 0 .066-.003.098-.01l13.9-3.094c.156-.034.282-.15.328-.304l1.982-6.528c.342-.046.643-.07.9-.07s.56.024.9.07l2.04 6.72c.052.17.2.294.374.313l.95.11zm15.872-.36l.45-.315-.24.927c-.624 2-1.36 3.768-2.178 5.33l-.576.02c-.63 0-1.276-.053-1.99-.118l-3.823-.4-3.885-3.077-.162-.134c-.268-.227-.576-.484-1.19-.484-.56 0-1.38.204-3.36.803 1.028-.768 1.035-1.76 1.035-1.76l.048-.418 13.04 1.482a.45.45 0 0 0 .306-.077l2.52-1.766z" fill="#e6ccad"/><path d="M45.1 17.388c.04 1.16.01 3.262-.53 5.23a.43.43 0 0 0 0 .225l-2.063-.192c.772-1.617.94-3.34.977-3.946.593-.42 1.183-.927 1.616-1.32zm-19.674 1.32c.036.607.204 2.325.975 3.94l-2.06.19c.02-.07.02-.146 0-.222-.54-1.965-.567-4.068-.53-5.23.433.394 1.024.896 1.616 1.32z" fill="#ebd599"/><path d="M48.587 40.216c-.928-.447-1.94.12-3.785.155-1.373.048-2.527.063-2.602-2.094s.804-3.944 2.178-3.993 2.626 1.664 2.795 3.818c.046.593-.02 1.026-.166 1.344 1.28-.153 1.568.715 1.58.767zm-4.316-3.16c.384-.01.696-.328.69-.715a.7.7 0 0 0-1.404.026.7.7 0 0 0 .715.689z" fill="#2d3136"/><path d="M43.556 36.363a.7.7 0 1 1 1.404-.026.7.7 0 1 1-1.404.026z" fill="#edf6fa"/><path d="M26.715 38.705c.02 2.16-1.12 2.03-2.498 2.042l-.403.007-.445.002c-1.334-.002-2.187-.062-2.944.346.02-.046.352-.787 1.547-1.088-.133-.293-.215-.698-.237-1.26-.082-2.157 1.248-3.926 2.623-3.938s2.336 1.728 2.353 3.9zm-2.123-1.13c.384-.01.693-.334.683-.72a.7.7 0 1 0-1.405.036c.01.387.333.694.722.684z" fill="#2d3136"/><path d="M23.87 36.893a.7.7 0 0 1 1.404-.036.7.7 0 0 1-1.404.036z" fill="#edf6fa"/><g fill="#ebd599"><path d="M16.224 24.05s.213-2.782.65-3.847c.225-.55 1.6-.896 2.648-1.152s2.723-.75 3.048.724.85 2.548 1.2 3.023l-.45-6.07-7.223 1.75-.475 5.37.225.425.374-.225m36.533 0s-.213-2.782-.65-3.847c-.225-.55-1.6-.896-2.648-1.152s-2.72-.75-3.048.724-.85 2.548-1.2 3.023l.45-6.07 7.22 1.75.474 5.372-.225.425-.374-.225" opacity=".8"/><path d="M42.548 5.88s-.19 14.56-3.592 14.56h-8.84c-3.4 0-3.675-14.55-3.675-14.55l-1.674 4.937.027 6.78 1.186.943.54 2.91.754 1.698 14.554.027.674-1.216.566-2.048.08-1.294 1.607-4.59-2.212-8.16zm10.71 13.573s.7 5.02 2.552 5.927 0 0 0 0l-2.593-.782.042-5.145zm-37.607 0s-.7 5.02-2.552 5.927 0 0 0 0l2.593-.782-.04-5.145z" opacity=".75"/></g><path d="M53.756 24.576c.882.29 1.768.594 2.572 1.064-.43-.17-.874-.292-1.32-.402l-1.344-.296-2.72-.425-2.735-.296-2.743-.208c-3.663-.225-7.336-.282-11.008-.285-3.675.002-7.348.07-11.008.287a93.65 93.65 0 0 0-2.743.208c-.914.077-1.826.175-2.735.295-.91.1-1.817.255-2.72.425a23.16 23.16 0 0 0-1.346.294c-.448.1-.9.232-1.32.402.8-.47 1.7-.777 2.573-1.066.074-.024.15-.045.225-.068-.005-.02-.01-.036-.014-.057-.015-.1-.342-2.515.224-5.966.027-.165.146-.3.308-.344l.934-.266c.203-7.24 3.185-10.645 3.278-10.75-2.664 4.287-2.64 9.372-2.594 10.556l5.8-1.65c.038-.008.06-.012.086-.013.006 0 .016-.002.024-.002.032-.001.064.002.095.01.04.01.063.02.09.03.01.005.017.01.027.016a.56.56 0 0 1 .057.036c.02.014.022.018.026.02s.012.01.017.014a17.98 17.98 0 0 0 .404.387c-.058-1.91.033-7.395 2.644-11.936-.055.16-2.127 6.217-1.413 13.006.23.186.468.362.713.528.115.08.185.21.187.35.002.022.05 2.187 1.007 4.028.013.028.024.057.033.086 2.378-.162 4.76-.224 7.14-.228a105.24 105.24 0 0 1 7.138.234c.008-.032.02-.062.035-.09.956-1.84 1.005-4.005 1.005-4.028a.44.44 0 0 1 .192-.352c.244-.167.48-.343.712-.528.715-6.79-1.357-12.847-1.408-13.006 2.61 4.544 2.702 10.028 2.644 11.936l.403-.384c.005-.005.013-.01.017-.014.015-.014.02-.017.026-.02.02-.013.038-.026.057-.038.01-.003.017-.01.026-.014a.53.53 0 0 1 .076-.026c.047-.01.08-.013.11-.012.01 0 .016.002.022.002.025.002.05.005.074.01l5.815 1.652c.047-1.184.07-6.272-2.593-10.556.096.105 3.072 3.5 3.276 10.75l.935.266a.43.43 0 0 1 .308.344c.57 3.45.24 5.865.227 5.966-.003.02-.008.04-.013.058l.226.07zm-1.055-.3c.045-.386.256-2.496-.192-5.376l-6.56-1.866c.06 1.112.085 3.524-.546 5.824-.008.028-.02.056-.032.083l.194.02c1.846.21 3.68.507 5.504.906.548.127 1.096.263 1.64.41zm-8.128-1.648c.54-1.968.57-4.07.53-5.23-.433.394-1.023.896-1.616 1.32-.037.607-.205 2.33-.977 3.946l2.063.192c-.02-.074-.02-.15 0-.225zm-18.17.03c-.77-1.616-.94-3.335-.975-3.94-.595-.42-1.183-.926-1.616-1.32-.038 1.162-.01 3.266.53 5.23.02.076.02.15 0 .222l2.06-.19zm-2.86.276c-.012-.025-.023-.052-.03-.08-.632-2.3-.608-4.71-.548-5.824l-6.567 1.867c-.442 2.874-.235 4.986-.19 5.375.545-.148 1.088-.284 1.642-.41.907-.2 1.822-.37 2.738-.524a62.67 62.67 0 0 1 2.76-.382c.066-.01.13-.013.195-.022zM41.377 6.07v5.448h-3.862V9.928h-.87v7.354h1.312v4.112h-6.752v-4.112h1.3V9.928h-.864v1.592h-3.86V6.07h13.59zm-1.16 4.29V7.226H28.94v3.136h1.54V8.77h3.188v9.672H32.36v1.794h4.437v-1.794h-1.312V8.77h3.19v1.592h1.54z" fill="#2d3136"/><path d="M28.942 10.362V7.226h11.272v3.136h-1.54V8.77h-3.19v9.672h1.312v1.794H32.36v-1.794h1.312V8.77h-3.188v1.592z" fill="#cb3349"/><path d="M9.822 29.798l2.256-.47-1.99 1.47-.266-1z" fill="#656c67"/><g fill="#c7b39a"><path d="M30.432 44.73s.157 1.013-1.26 1.446-10.394 3.11-11.418 2.964-3.622-1.88-3.622-1.88l-.63-2.24 3.845 2.397 13.085-2.687zm8.042-.196s-.113 1.018 1.322 1.4 10.52 2.654 11.536 2.465 3.537-2.035 3.537-2.035l.532-2.267-3.534 2.108-13.393-1.66z"/><path d="M9.092 42.866s1.244 2.488 3.253 1.627l1.435.526-.143 1.056-3.014.382-.813-.478-.718-3.11zm50.924-.683s-2.033 2.597-4.042 1.736l-.646.417.143 1.056 3.014.383.813-.478.718-3.11zM28.57 61.73s7.37 3.712 15.714-1.34l-2.68-.182s-5.847 2.314-10.476 1.035l-2.558.488z"/></g><path d="M36.04 54.88l.5.608a45.5 45.5 0 0 0 2.53 2.737c.922.913 2.034 1.375 3.3 1.375.435 0 .896-.056 1.355-.167l1.372-.33 5.236-1.296c1.26-.288 2.986-.692 3.9-2.528l2.303-4.467-1.665.806c-.684.36-1.58.533-2.74.533-.69 0-1.365-.058-2.114-.128l-4.247-.46-.153-.123-4.034-3.194-.198-.164c-.192-.16-.192-.16-.3-.16-.575 0-2.246.518-5.908 1.654l-.225.07-.224-.083c-.025-.008-2.427-.896-5.306-.896l-.7.018c-.288.015-1.907.783-3.976 4.058l-.134.2-.237.076-7.373 2.242-.245.07-.232-.108c-.025-.01-1.503-.696-2.912-1.342l2.61 3.655c1.504 1.94 3.408 3.736 7.05 3.736.482-.001.963-.03 1.44-.085l5.174-.677.487-.076c.028-.003 3.062-.396 3.914-2.306l1.062-2.448.3-.827s.038-.214.1-.28l.008.006c.098.07.242.29.242.29zM12.96 17.824l-2.387 1.024-2.3 1.17c-.678.39-1.33.82-1.905 1.304l-.067.455-.066.64-.058 1.3c-.008.868.05 1.736.16 2.596.12.86.277 1.718.5 2.545l.398 1.217.244.582.132.277.055.104.194.096.386.184.757.35a.5.5 0 0 0 .04-.036l-.714-2.72c.15-.042 1.51-.393 3.85-.838l-.568-.122c-.532-.132-1.056-.294-1.567-.5-.253-.105-.5-.225-.74-.358s-.47-.3-.65-.495c2.57.846 7.884.465 12.607-.022 4.32-.446 8.65-.734 13-.744 4.352.01 8.684.298 13.002.744 4.726.487 10.04.868 12.6.028-.18.205-.414.36-.65.495a7.4 7.4 0 0 1-.736.358 11.78 11.78 0 0 1-1.569.5l-.237.053c2.566.476 4.064.863 4.22.906l-.684 2.594.412-.184.386-.184.194-.096.053-.104a6.64 6.64 0 0 0 .134-.276c.088-.19.17-.385.245-.582a13.36 13.36 0 0 0 .395-1.217 18.61 18.61 0 0 0 .51-2.545c.11-.86.17-1.728.16-2.596-.003-.434-.02-.868-.056-1.3a16.51 16.51 0 0 0-.068-.643 9.45 9.45 0 0 0-.068-.455c-.575-.484-1.226-.913-1.905-1.304a25.86 25.86 0 0 0-2.291-1.171c-.78-.368-1.582-.702-2.387-1.024l-1.216-.472-1.227-.455c.863.142 1.718.34 2.564.557.552.144 1.1.302 1.645.474-3.872-10.13-13.142-16.727-23.26-16.727s-19.384 6.597-23.26 16.727c.544-.17 1.092-.33 1.643-.474a30.39 30.39 0 0 1 2.566-.557l-1.23.455-1.216.472zm51.018 5.86c.047.933.022 1.867-.083 2.795a17.7 17.7 0 0 1-.518 2.754c-.128.455-.278.903-.45 1.343a10.27 10.27 0 0 1-.288.662 5.71 5.71 0 0 1-.167.328l-.09.164c-.033.06-.06.104-.11.184l-.094.146-.147.076c-.142.073-.285.142-.43.21l-.415.187a28.06 28.06 0 0 1-.838.341l-.532.216-.462 1.756-.41-.1-.025.184c.5.267 1.512.807 1.854 1.09.687.568.736 1.468.583 3.15-.078.863-.365 2.543-.762 4.085-.686 2.655-1.05 2.967-1.52 3.088-.315.08-.638.12-.963.123-.725 0-1.713.02-2.377-.14-.17.604-.658 2.18-1.622 4.148.048-.023.096-.043.14-.066 1.19-.625 3.475-1.62 3.572-1.664l1.806-.785-.928 1.74c-.02.038-2.005 3.767-3.22 6.203-1.206 2.412-3.467 2.938-4.82 3.248l-.555.136c-.97.273-2.937.742-4.672 1.16-.02.005-.042.01-.063.014-1.11.688-2.285 1.267-3.506 1.73-4.662 1.766-9.575 1.666-14.03.03l-2.942.35c-.53.06-1.062.092-1.595.093-4.245 0-6.494-2.155-8.136-4.266-1.758-2.26-3.908-5.615-4-5.755l-1.24-1.94 2.107.947 4.866 2.24.205-.06c-1.426-2.034-2.596-4.354-3.422-6.923-.702.212-1.784.376-2.626.376a3.62 3.62 0 0 1-.795-.073c-.47-.108-1.007-.56-1.738-3.134-.424-1.494-.74-3.124-.833-3.964-.182-1.638-.15-2.517.532-3.084.41-.342 1.792-1.07 2.082-1.216l-.062-.506c-4.4 2.586-7.04 4.87-7.1 4.917L0 42.977l2.242-3.535c1.774-2.802 3.823-5.066 5.71-6.81l-.224-.094-.416-.187c-.142-.067-.272-.128-.43-.21l-.147-.076-.094-.146c-.053-.08-.076-.124-.11-.184l-.096-.164-.166-.328c-.103-.217-.198-.438-.285-.663a14.33 14.33 0 0 1-.449-1.343c-.246-.9-.42-1.824-.518-2.754s-.13-1.862-.083-2.795a16.59 16.59 0 0 1 .134-1.393c.033-.232.068-.464.115-.694.047-.24.102-.476.166-.71l.05-.18.13-.102c.734-.577 1.526-1.012 2.33-1.398.66-.308 1.335-.587 2.02-.837 1.902-5.278 5.172-9.958 9.472-13.216C23.788 1.782 29.013 0 34.454 0s10.667 1.782 15.1 5.154c4.298 3.262 7.568 7.942 9.468 13.218.683.252 1.357.525 2.02.838.805.386 1.6.822 2.33 1.4l.13.1.05.18a8.56 8.56 0 0 1 .165.711 10.44 10.44 0 0 1 .114.694c.066.462.11.927.134 1.393zm-3.838 15.37c.146-1.617.02-1.965-.146-2.097-.164-.138-.72-.452-1.26-.746l-.9 6.23c-.017.122-.085.23-.186.3l-1.273.9c-.1.5-.138.75-.26 1.25.727.17 1.92.3 2.488.2.516-.56 1.348-4.032 1.526-6.017zm-1.65-5.647l.953-3.616c-1.382-.313-3.926-.837-7.392-1.327-1.77 1.272-3.706 2.3-5.6 3.104 5.824.566 10.102 1.4 12.05 1.84zM57 42.123l1.083-7.576-1.834-.374-.98 6.855c-.018.12-.085.232-.184.302l-3.67 2.567c-.088.062-.196.09-.303.078L40.04 42.717c-.176-.02-.324-.142-.376-.31l-1.993-6.56c-.534-.138-1.904-.458-3.103-.458-1.204 0-2.573.32-3.106.458l-1.993 6.56c-.035.113-.113.208-.218.263a.43.43 0 0 1-.11.04l-11.06 2.466a.48.48 0 0 1-.098.011c-.09 0-.18-.028-.253-.08l-3.67-2.57a.45.45 0 0 1-.187-.31l-.992-8.023-1.114.225-.696.388 1.05 8.502 5.333 3.736L30.91 44.06l1.986-6.544c.05-.163.186-.285.355-.312.504-.08.944-.122 1.317-.122s.81.042 1.314.122a.44.44 0 0 1 .355.312l2.037 6.706 13.53 1.538 5.184-3.634zm-2.582-1.408l.957-6.703c-2.7-.492-6.65-1.086-11.487-1.457-4.367 1.506-8.025 1.954-8.245 1.97l-.255.018c1.393.12 2.705.494 2.77.514a.45.45 0 0 1 .302.299l1.98 6.517 10.604 1.205 3.373-2.36zm.737 3.8l-.45.315-2.52 1.766c-.1.06-.198.1-.305.078l-13.988-1.6c-.176-.02-.323-.143-.375-.313l-2.04-6.72c-.34-.046-.645-.07-.896-.07s-.56.023-.9.07l-1.98 6.526a.44.44 0 0 1-.328.303l-13.903 3.1c-.032.006-.065.01-.098.01a.44.44 0 0 1-.255-.081l-.505-.35-1.512-1.058v-.003l-.608-.427c.043.138.096.272.14.406l-.002.002c.118.35 1.29 3.72 3.67 7.018l5.458-1.675c1.436-2.213 3.48-4.41 4.934-4.484.256-.013.512-.02.77-.02.675.002 1.35.044 2.02.126-.534-.486-.644-1.055-.722-1.307 0 0 1.854 1.45 4.214 1.147s3.827-1.665 3.827-1.665-.006.993-1.035 1.76c1.978-.598 2.797-.8 3.36-.8.618 0 .922.26 1.19.486l.162.134 3.885 3.076 3.822.41c.713.064 1.358.12 1.99.12.204 0 .395-.008.575-.02.82-1.562 1.554-3.328 2.18-5.33.085-.308.164-.617.238-.928zm-4.81-16.5l-3.154-.212-4.373-.214a23.13 23.13 0 0 1-.504.712c-.794 1.074-2.367 3.04-4.385 4.714 2.856-.512 7.808-1.78 12.097-4.77l.32-.23zm-9.56.296l.334-.43a35.85 35.85 0 0 0-3.094.451c-3.46.648-6.656 1.728-9.312 2.828a122.53 122.53 0 0 1 5.933-.146c1.25 0 2.466.02 3.65.056 1.018-.978 1.875-1.978 2.494-2.76zm1.148 32.667c-1.44-.106-2.75-.706-3.81-1.753l-.16-.164a14.2 14.2 0 0 1-1.562.225c-.223.008-.435.028-.672.028h-.48c-1.407 2.093-4.53 2.5-4.674 2.518a5.79 5.79 0 0 0-.384.059c1.74.48 3.52.684 5.272.566s4.04-.498 6.462-1.48zm-5.568-2.387c.338-.027.678-.07 1.02-.12a44.53 44.53 0 0 1-1.142-1.234l-.614 1.39h.078c.21 0 .44-.022.66-.033zM35.28 33.4a15.21 15.21 0 0 0 1.68-1.188l-2.33-.023a120.46 120.46 0 0 0-9.02.34c-2.752 1.344-4.44 2.455-4.48 2.483l-2.646 1.764 1.818-2.608a16.7 16.7 0 0 1 .946-1.234c-3.052.34-5.593.746-7.488 1.095l.972 7.882 3.345 2.342 10.62-2.36 1.988-6.55c.033-.108.106-.198.2-.254a.36.36 0 0 1 .101-.045c.06-.017 1.12-.32 2.348-.47l1.95-1.178zm1.22-6.012l-2.22-.02-3.264.032-2.006.95c-.002.002-.013.006-.028.015-.3.147-2.936 1.476-5.414 3.846 2.222-1.168 5.487-2.694 9.33-3.877 1.15-.353 2.357-.678 3.6-.95zm-14.02 4.206c1.04-1.032 2.114-1.884 3.06-2.55-3.653.848-7.015 2.094-9.96 3.45a115.29 115.29 0 0 1 6.899-.899zm.69-3.184a49.33 49.33 0 0 1 3.78-.895l-5.566.26-3.22.213-1.602.142c-.152.015-.302.03-.454.05-1.398.836-6.76 4.203-10.442 8.608 3.578-2.486 9.81-6.222 17.504-8.375zM13.3 45.76c-.07-.223-.136-.447-.2-.673l-1.652-1.156c-.104-.072-.172-.185-.187-.3l-.805-6.544c-.596.32-1.285.712-1.47.866-.16.128-.28.467-.107 2.026.214 1.92 1.188 5.547 1.71 6.074.63.11 2.025-.083 2.71-.284zm-1.22-16.435l-2.256.47.266 1c.645-.515 1.31-1.006 1.99-1.47z" fill="#2d3136"/></g></symbol><defs ><path id="C" d="M20.43 41.1c.754-.408 1.606-.347 2.944-.346l.448-.002.402-.007c1.375-.014 2.518.117 2.498-2.042s-.98-3.903-2.353-3.9-2.705 1.78-2.623 3.938c.022.562.105.967.238 1.26-1.198.3-1.53 1.04-1.547 1.088zm16.53-8.88c-.533.433-1.094.83-1.68 1.188l-1.95 1.178c-1.224.15-2.286.452-2.346.47-.036.01-.07.025-.102.045-.095.054-.166.146-.202.254l-1.984 6.547-10.62 2.362-3.345-2.342-.973-7.883 7.488-1.094-.946 1.234-1.817 2.608 2.645-1.76c.04-.028 1.724-1.136 4.48-2.483l9.02-.34 2.33.022z"/><path id="D" d="M48.588 40.216c-.014-.05-.302-.92-1.58-.767.147-.32.213-.754.166-1.344-.17-2.154-1.422-3.866-2.795-3.818S42.124 36.12 42.2 38.28s1.23 2.142 2.602 2.094c1.846-.034 2.86-.602 3.786-.155zm6.778-6.203l-.958 6.702-3.373 2.362-10.605-1.205-1.98-6.516a.45.45 0 0 0-.302-.299c-.066-.02-1.38-.394-2.77-.514l.254-.017c.22-.016 3.878-.464 8.245-1.97 4.837.37 8.787.966 11.487 1.458z"/></defs></svg>