<?xml version="1.0" standalone="no"?>
<!DOCTYPE svg PUBLIC "-//W3C//DTD SVG 20010904//EN"
 "http://www.w3.org/TR/2001/REC-SVG-20010904/DTD/svg10.dtd">
<svg version="1.0" xmlns="http://www.w3.org/2000/svg"
 width="400.000000pt" height="400.000000pt" viewBox="0 0 400.000000 400.000000"
 preserveAspectRatio="xMidYMid meet">

<g transform="translate(0.000000,400.000000) scale(0.100000,-0.100000)"
fill="#000000" stroke="none">
<path d="M490 2665 l0 -35 84 0 c68 0 88 -4 107 -19 l24 -19 0 -519 0 -518
-25 -44 c-33 -59 -59 -84 -115 -111 -101 -49 -282 -4 -326 81 -38 76 -24 94
80 94 91 0 111 12 143 84 33 73 5 153 -73 206 -84 57 -182 32 -260 -66 -34
-43 -34 -44 -34 -144 0 -92 2 -104 29 -148 42 -70 125 -139 209 -173 66 -27
81 -29 203 -29 120 0 136 3 201 29 79 31 161 97 200 159 56 89 56 94 60 602 2
259 5 479 8 491 6 28 46 44 110 44 l55 0 0 35 0 35 -340 0 -340 0 0 -35z"/>
<path d="M1080 2516 l0 -33 72 -6 c45 -4 77 -12 87 -22 14 -14 17 -72 21 -453
5 -473 5 -465 63 -544 30 -41 111 -93 192 -125 65 -25 80 -27 225 -27 140 0
161 2 215 23 114 45 187 111 233 209 l27 57 5 375 c5 331 8 380 23 413 27 58
61 84 118 92 48 7 49 8 49 41 l0 34 -235 0 -235 0 0 -34 c0 -33 2 -35 52 -45
57 -13 90 -40 113 -94 21 -51 22 -665 1 -744 -38 -141 -133 -207 -301 -207
-78 0 -97 4 -141 27 -53 27 -92 65 -122 121 -15 28 -17 77 -20 446 -3 351 -1
418 11 435 12 16 30 20 91 23 l76 4 0 34 0 34 -310 0 -310 0 0 -34z"/>
<path d="M3196 2235 c-32 -29 -34 -67 -4 -95 22 -20 63 -26 84 -12 38 25 39
91 1 117 -30 21 -50 19 -81 -10z"/>
<path d="M3635 2065 c-21 -87 -66 -150 -118 -163 -22 -6 -33 -15 -35 -30 -3
-20 1 -22 47 -22 l50 0 3 -222 c3 -212 4 -225 25 -254 24 -34 86 -64 131 -64
36 1 102 32 129 61 18 21 53 123 53 158 0 6 -9 11 -19 11 -16 0 -22 -12 -32
-55 -16 -74 -46 -105 -99 -105 -27 0 -47 7 -60 20 -19 19 -20 33 -20 235 l0
215 96 0 95 0 -3 28 -3 27 -92 3 -93 3 0 114 c0 106 -1 115 -19 115 -15 0 -22
-14 -36 -75z"/>
<path d="M2398 1913 c-80 -3 -88 -6 -88 -23 0 -15 7 -20 29 -20 16 0 39 -9 52
-19 24 -19 24 -22 27 -233 1 -117 -2 -219 -7 -227 -5 -7 -29 -16 -55 -18 -40
-5 -46 -9 -46 -29 l0 -24 155 0 155 0 0 25 c0 22 -4 25 -39 25 -61 0 -63 8
-60 198 4 166 4 169 32 210 46 65 123 88 190 56 59 -28 70 -66 75 -255 4 -159
3 -168 -17 -188 -13 -13 -34 -21 -56 -21 -31 0 -35 -3 -35 -25 l0 -25 155 0
155 0 0 25 c0 22 -4 25 -39 25 -21 0 -43 6 -49 13 -5 6 -12 94 -15 197 -5 211
-13 245 -70 297 l-40 35 -86 -4 c-78 -4 -91 -7 -126 -33 -21 -17 -46 -43 -56
-58 -19 -33 -22 -28 -34 56 -3 26 -9 46 -13 45 -4 -1 -46 -4 -94 -5z"/>
<path d="M3080 1885 c0 -23 4 -25 44 -25 36 0 48 -5 65 -26 20 -25 21 -39 21
-230 0 -231 -1 -234 -76 -234 -40 0 -44 -2 -44 -25 l0 -25 165 0 165 0 0 25
c0 23 -4 25 -43 25 -24 0 -48 5 -55 12 -9 9 -12 83 -12 270 l0 258 -115 0
-115 0 0 -25z"/>
</g>
</svg>
