<?xml version="1.0" standalone="no"?>
<!DOCTYPE svg PUBLIC "-//W3C//DTD SVG 20010904//EN"
 "http://www.w3.org/TR/2001/REC-SVG-20010904/DTD/svg10.dtd">
<svg version="1.0" xmlns="http://www.w3.org/2000/svg"
 width="264.000000pt" height="75.000000pt" viewBox="0 0 264.000000 75.000000"
 preserveAspectRatio="xMidYMid meet">

<g transform="translate(0.000000,75.000000) scale(0.100000,-0.100000)"
fill="#000000" stroke="none">
<path d="M1867 722 c-35 -38 -13 -92 36 -92 42 0 57 15 57 57 0 50 -59 72 -93
35z"/>
<path d="M2046 694 c-10 -9 -16 -33 -16 -58 0 -40 -2 -44 -31 -50 -27 -5 -30
-9 -27 -38 2 -28 8 -34 31 -36 l27 -3 0 -143 c0 -169 9 -190 84 -201 62 -10
101 10 101 50 0 27 -4 31 -35 35 l-35 5 -3 128 c-2 120 -2 127 17 127 34 0 51
11 51 34 0 28 -18 46 -47 46 -20 0 -23 5 -23 40 0 65 -56 103 -94 64z"/>
<path d="M2335 581 c-78 -36 -115 -102 -115 -204 0 -78 35 -156 84 -186 93
-58 212 -46 279 28 97 108 66 306 -57 362 -53 24 -139 24 -191 0z m155 -96
c46 -41 45 -162 -1 -211 -50 -54 -140 -19 -155 61 -18 100 32 183 104 172 19
-4 42 -13 52 -22z"/>
<path d="M1860 571 c-6 -12 -10 -95 -10 -200 l0 -181 25 -16 c25 -16 63 -12
77 10 13 20 9 381 -4 394 -20 20 -76 15 -88 -7z"/>
</g>
</svg>
